<svg xmlns="http://www.w3.org/2000/svg" viewBox="0 0 32 32" role="img" aria-label="Tower 13 - Collapse Protocol">
  <defs>
    <radialGradient id="plate" cx="32%" cy="22%" r="88%">
      <stop offset="0%" stop-color="#243049"/>
      <stop offset="42%" stop-color="#10141f"/>
      <stop offset="100%" stop-color="#030405"/>
    </radialGradient>
    <linearGradient id="rim-outer" x1="0" y1="0" x2="1" y2="1">
      <stop offset="0%" stop-color="#f5ecd8"/>
      <stop offset="22%" stop-color="#d4b24a"/>
      <stop offset="50%" stop-color="#a67c1a"/>
      <stop offset="78%" stop-color="#6b5420"/>
      <stop offset="100%" stop-color="#3d2f12"/>
    </linearGradient>
    <linearGradient id="rim-inner" x1="0" y1="1" x2="1" y2="0">
      <stop offset="0%" stop-color="#2a2210"/>
      <stop offset="45%" stop-color="#8a7030"/>
      <stop offset="100%" stop-color="#c9a85c"/>
    </linearGradient>
    <linearGradient id="monolith" x1="0" y1="0" x2="1" y2="0">
      <stop offset="0%" stop-color="#0c0f18"/>
      <stop offset="18%" stop-color="#3d4760"/>
      <stop offset="42%" stop-color="#1c2233"/>
      <stop offset="62%" stop-color="#141a28"/>
      <stop offset="88%" stop-color="#0a0d14"/>
      <stop offset="100%" stop-color="#050608"/>
    </linearGradient>
    <linearGradient id="spire" x1="0" y1="0" x2="0" y2="1">
      <stop offset="0%" stop-color="#d4fff0"/>
      <stop offset="40%" stop-color="#46d6a9"/>
      <stop offset="100%" stop-color="#1a6b52"/>
    </linearGradient>
    <linearGradient id="spire-shine" x1="0" y1="0" x2="1" y2="0">
      <stop offset="0%" stop-color="#ffffff" stop-opacity="0.5"/>
      <stop offset="0.4" stop-color="#ffffff" stop-opacity="0"/>
      <stop offset="1" stop-color="#ffffff" stop-opacity="0"/>
    </linearGradient>
    <linearGradient id="fracture" x1="0" y1="0" x2="0" y2="1">
      <stop offset="0%" stop-color="#f0e4c8" stop-opacity="0.95"/>
      <stop offset="50%" stop-color="#c9a227" stop-opacity="0.7"/>
      <stop offset="100%" stop-color="#6b5420" stop-opacity="0.35"/>
    </linearGradient>
  </defs>

  <rect x="0.5" y="0.5" width="31" height="31" rx="8" ry="8" fill="url(#plate)"/>
  <rect x="1.25" y="1.25" width="29.5" height="29.5" rx="7" ry="7" fill="none" stroke="url(#rim-outer)" stroke-width="0.65" opacity="0.92"/>
  <rect x="2.15" y="2.15" width="27.7" height="27.7" rx="6" ry="6" fill="none" stroke="url(#rim-inner)" stroke-width="0.35" opacity="0.55"/>

  <path fill="url(#monolith)" d="M11.5 25.5V11.2H20.5V25.5H11.5Z"/>
  <path fill="#06080d" opacity="0.88" d="M12.25 20.2h7.5v0.85h-7.5z"/>
  <path fill="#06080d" opacity="0.88" d="M12.65 23.15h6.7v0.85h-6.7z"/>
  <path fill="url(#rim-outer)" opacity="0.88" d="M11.15 10.85h9.7v1.05h-9.7z"/>
  <path fill="#1a1510" opacity="0.5" d="M11.35 11.05h9.3v0.65h-9.3z"/>

  <path fill="none" stroke="url(#fracture)" stroke-width="0.45" stroke-linecap="round" d="M16.35 12.2L15.85 25.1"/>

  <path fill="url(#spire)" d="M16 3.85l2.85 6.35h-5.7z"/>
  <path fill="url(#spire-shine)" d="M16 3.85l2.85 6.35h-5.7z"/>
  <path fill="none" stroke="#9ef8dc" stroke-width="0.22" stroke-opacity="0.45" d="M15.1 6.45L16 4.35l0.9 2.1"/>

  <path stroke="#8ea0c4" stroke-opacity="0.3" stroke-width="0.35" d="M12.4 16.5h7.2M12.4 18.1h7.2"/>
</svg>
